<svg id="visual" viewBox="0 0 900 600" width="900" height="600" xmlns="http://www.w3.org/2000/svg" xmlns:xlink="http://www.w3.org/1999/xlink" version="1.1"><rect x="0" y="0" width="900" height="600" fill="#f9f8f8"></rect><path d="M0 291L30 270.8C60 250.7 120 210.3 180 210.3C240 210.3 300 250.7 360 264.3C420 278 480 265 540 243.5C600 222 660 192 720 177.5C780 163 840 164 870 164.5L900 165L900 0L870 0C840 0 780 0 720 0C660 0 600 0 540 0C480 0 420 0 360 0C300 0 240 0 180 0C120 0 60 0 30 0L0 0Z" fill="#98c3ff"></path><path d="M0 191L30 189C60 187 120 183 180 168.5C240 154 300 129 360 130.3C420 131.7 480 159.3 540 164.5C600 169.7 660 152.3 720 148.7C780 145 840 155 870 160L900 165L900 0L870 0C840 0 780 0 720 0C660 0 600 0 540 0C480 0 420 0 360 0C300 0 240 0 180 0C120 0 60 0 30 0L0 0Z" fill="#6999df"></path><path d="M0 42L30 41.7C60 41.3 120 40.7 180 36.5C240 32.3 300 24.7 360 28.8C420 33 480 49 540 66.3C600 83.7 660 102.3 720 100.5C780 98.7 840 76.3 870 65.2L900 54L900 0L870 0C840 0 780 0 720 0C660 0 600 0 540 0C480 0 420 0 360 0C300 0 240 0 180 0C120 0 60 0 30 0L0 0Z" fill="#3770bf"></path></svg>