<svg id="visual" viewBox="0 0 900 600" width="900" height="600" xmlns="http://www.w3.org/2000/svg" xmlns:xlink="http://www.w3.org/1999/xlink" version="1.1"><rect x="0" y="0" width="900" height="600" fill="#3770bf"></rect><path d="M0 369L37.5 398C75 427 150 485 225 494C300 503 375 463 450 433C525 403 600 383 675 368.8C750 354.7 825 346.3 862.5 342.2L900 338L900 601L862.5 601C825 601 750 601 675 601C600 601 525 601 450 601C375 601 300 601 225 601C150 601 75 601 37.5 601L0 601Z" fill="#f9f8f8" stroke-linecap="round" stroke-linejoin="miter"></path></svg>